<?xml version="1.0" encoding="UTF-8"?>
<svg version="1.1" xmlns="http://www.w3.org/2000/svg" width="594" height="362">
<path d="M0 0 C196.02 0 392.04 0 594 0 C594 119.46 594 238.92 594 362 C397.98 362 201.96 362 0 362 C0 242.54 0 123.08 0 0 Z " fill="#FEFEFE" transform="translate(0,0)"/>
<path d="M0 0 C1.91845703 0.93286133 1.91845703 0.93286133 3.7578125 2.08203125 C4.45575928 2.51314209 5.15370605 2.94425293 5.87280273 3.38842773 C6.98764038 4.09334351 6.98764038 4.09334351 8.125 4.8125 C8.91269775 5.30242432 9.70039551 5.79234863 10.51196289 6.29711914 C13.01330853 7.85640918 15.50724893 9.42701328 18 11 C19.5793916 11.99224398 21.15881808 12.98443244 22.73828125 13.9765625 C28.25676693 17.45010085 33.76268489 20.94337737 39.26660156 24.43994141 C50.2471957 31.41345598 61.29443614 38.27048551 72.38061523 45.07495117 C79.5803808 49.49847109 86.7468965 53.9695187 93.88330078 58.49438477 C99.17904694 61.85182229 104.48542156 65.19164787 109.80224609 68.515625 C111.83811351 69.78897224 113.87231791 71.06498253 115.90478516 72.34375 C120.96006505 75.51645835 126.03872843 78.62712055 131.1953125 81.6328125 C132.17258301 82.2110376 133.14985352 82.7892627 134.15673828 83.38500977 C136.01160078 84.47935634 137.87687613 85.5562968 139.75341797 86.61303711 C142.01898626 87.96028147 144.06137008 89.21438848 146 91 C146.6875 94.24609375 146.6875 94.24609375 146 97 C145.34 97.66 144.68 98.32 144 99 C138.56637353 98.84018746 135.93879885 96.08674928 131 93 C131 102.57 131 112.14 131 122 C136.50483671 121.92095409 136.50483671 121.92095409 142.00927734 121.81982422 C144.00703478 121.80526262 146.00467217 121.90043274 148 122 C148.66 122.66 149.32 123.32 150 124 C149.75 127.0625 149.75 127.0625 149 130 C143.6251615 132.68741925 137.00925213 131 131 131 C131 141.89 131 152.78 131 164 C131.99 164 132.98 164 134 164 C134 167.96 134 171.92 134 176 C133.01 175.67 132.02 175.34 131 175 C131 205.36 131 235.72 131 267 C134.96 267 138.92 267 143 267 C144 271 144 271 142.78515625 273.140625 C141.93244141 274.18476562 141.93244141 274.18476562 141.0625 275.25 C140.49660156 275.95640625 139.93070312 276.6628125 139.34765625 277.390625 C138.90292969 277.92171875 138.45820313 278.4528125 138 279 C137.67 278.01 137.34 277.02 137 276 C45.26 276 -46.48 276 -141 276 C-141.33 276.99 -141.66 277.98 -142 279 C-144.31 276.03 -146.62 273.06 -149 270 C-148.01 269.01 -147.02 268.02 -146 267 C-142.37 267 -138.74 267 -135 267 C-135 222.12 -135 177.24 -135 131 C-140.61 131 -146.22 131 -152 131 C-154 129 -154 129 -154.25 126.5 C-154 124 -154 124 -152 122 C-149.08274582 121.85442843 -146.28685195 121.81401033 -143.375 121.875 C-140.61125 121.91625 -137.8475 121.9575 -135 122 C-135 112.43 -135 102.86 -135 93 C-138.3 94.98 -141.6 96.96 -145 99 C-149 98 -149 98 -150 97 C-150.5703125 94.28125 -150.5703125 94.28125 -150 91 C-147.60551363 88.67252656 -144.76362171 87.14618854 -141.875 85.5 C-140.11780757 84.44644919 -138.36132433 83.39171482 -136.60546875 82.3359375 C-135.6829834 81.7903418 -134.76049805 81.24474609 -133.81005859 80.68261719 C-129.20755492 77.92671316 -124.70255683 75.02112343 -120.1875 72.125 C-118.32458968 70.93821962 -116.46130556 69.75202582 -114.59765625 68.56640625 C-110.91676866 66.22192855 -107.23726154 63.87530267 -103.55859375 61.52734375 C-94.13015174 55.51323315 -84.67914537 49.53893011 -75.1875 43.625 C-65.8752771 37.82276881 -56.62245732 31.93322083 -47.39135742 26.00292969 C-38.98919664 20.61298873 -30.5356898 15.30866843 -22.05273438 10.046875 C-21.12783203 9.47195312 -20.20292969 8.89703125 -19.25 8.3046875 C-18.36570312 7.75780273 -17.48140625 7.21091797 -16.5703125 6.64746094 C-13.30660488 4.55556323 -10.17584174 2.29269739 -7.0703125 -0.02685547 C-4.29114452 -1.33319551 -2.88962497 -0.91792443 0 0 Z " fill="#E3ECF9" transform="translate(305,24)"/>
<path d="M0 0 C2.11682 0.85994989 3.99715655 1.84679858 5.9543457 3.02758789 C7.11788574 3.72621948 7.11788574 3.72621948 8.30493164 4.43896484 C9.14056641 4.94903076 9.97620117 5.45909668 10.8371582 5.98461914 C11.71919922 6.51853271 12.60124023 7.05244629 13.51000977 7.60253906 C21.83885072 12.66981294 30.05583206 17.90914323 38.2668457 23.16430664 C44.09935031 26.89348316 49.96401462 30.56986529 55.8371582 34.23461914 C56.83457031 34.85699463 57.83198242 35.47937012 58.85961914 36.12060547 C60.88291158 37.3826382 62.90634936 38.64443793 64.92993164 39.90600586 C69.94306361 43.03255338 74.95243117 46.16511989 79.9621582 49.29711914 C81.94130655 50.53412761 83.92047328 51.77110669 85.8996582 53.00805664 C86.88708008 53.62519531 87.87450195 54.24233398 88.8918457 54.87817383 C89.90504883 55.51142578 90.91825195 56.14467773 91.9621582 56.79711914 C97.2902832 60.12719727 102.6184082 63.45727539 107.9465332 66.78735352 C109.34645508 67.66230469 109.34645508 67.66230469 110.7746582 68.55493164 C112.50382487 69.63566081 114.23299154 70.71638997 115.9621582 71.79711914 C118.6021582 73.44711914 121.2421582 75.09711914 123.9621582 76.79711914 C123.9621582 88.34711914 123.9621582 99.89711914 123.9621582 111.79711914 C41.7921582 111.79711914 -40.3778418 111.79711914 -125.0378418 111.79711914 C-125.0378418 100.57711914 -125.0378418 89.35711914 -125.0378418 77.79711914 C-113.79339202 69.9260043 -113.79339202 69.9260043 -109.47924805 67.25415039 C-108.52622803 66.66158447 -107.57320801 66.06901855 -106.59130859 65.45849609 C-105.60428955 64.8483667 -104.61727051 64.2382373 -103.6003418 63.60961914 C-101.4725084 62.28707121 -99.3449069 60.96415011 -97.2175293 59.64086914 C-96.17177734 58.99118164 -95.12602539 58.34149414 -94.04858398 57.67211914 C-89.76255927 55.0029114 -85.49211333 52.30946414 -81.2253418 49.60961914 C-80.46165283 49.12662354 -79.69796387 48.64362793 -78.91113281 48.14599609 C-77.38473766 47.18043 -75.85845092 46.21469249 -74.33227539 45.2487793 C-70.40238218 42.76238378 -66.46994231 40.28002181 -62.5378418 37.79711914 C-60.9505983 36.79452117 -59.36335871 35.79191702 -57.77612305 34.78930664 C-54.64916694 32.81431937 -51.52151797 30.84043628 -48.39331055 28.86743164 C-46.83728156 27.88572326 -45.2812921 26.90395222 -43.7253418 25.92211914 C-42.95585205 25.43662598 -42.1863623 24.95113281 -41.39355469 24.45092773 C-37.0235889 21.69118614 -32.6603997 18.92114606 -28.3034668 16.14086914 C-27.33320557 15.52195801 -26.36294434 14.90304688 -25.36328125 14.26538086 C-23.49905888 13.07551875 -21.63556127 11.88452 -19.77294922 10.69213867 C-18.05327976 9.59451832 -16.33029138 8.50207761 -14.60375977 7.4152832 C-12.82836064 6.29564996 -11.06228237 5.16114988 -9.30395508 4.01489258 C-8.42336426 3.45576172 -7.54277344 2.89663086 -6.63549805 2.32055664 C-5.84796143 1.81186035 -5.0604248 1.30316406 -4.24902344 0.77905273 C-2.0378418 -0.20288086 -2.0378418 -0.20288086 0 0 Z " fill="#FEFEFE" transform="translate(303.037841796875,34.202880859375)"/>
<path d="M0 0 C8.91 0 17.82 0 27 0 C27.495 5.94 27.495 5.94 28 12 C29.71626405 13.92091092 29.71626405 13.92091092 37 14 C37 23.9 37 33.8 37 44 C34.04816899 41.04816899 33.91336012 38.04488053 33 34 C28.05 34.33 23.1 34.66 18 35 C18.33 35.66 18.66 36.32 19 37 C19.07033769 38.87379605 19.0843022 40.75001102 19.0625 42.625 C19.05347656 43.62789062 19.04445313 44.63078125 19.03515625 45.6640625 C19.02355469 46.43492187 19.01195312 47.20578125 19 48 C20.32 48 21.64 48 23 48 C24.67304394 52.73201884 26.34538486 57.46428532 28.01708984 62.19677734 C28.58525846 63.80491767 29.1536153 65.41299151 29.72216797 67.02099609 C30.54184295 69.33934126 31.36082895 71.65792886 32.1796875 73.9765625 C32.43185028 74.68930328 32.68401306 75.40204407 32.94381714 76.13638306 C33.41850572 77.48128425 33.88946859 78.82750796 34.35617065 80.17520142 C34.92760591 81.7948142 35.54278145 83.39884615 36.1640625 85 C37.19758018 88.7090728 37.25056661 92.20831656 37.1953125 96.0234375 C37.1924826 96.76961334 37.18965271 97.51578918 37.18673706 98.28457642 C37.17561687 100.64821988 37.15052821 103.01147268 37.125 105.375 C37.11495962 106.98567158 37.10583562 108.59634915 37.09765625 110.20703125 C37.0757044 114.13816944 37.04123185 118.06901867 37 122 C34.94921875 122.22786458 32.8984375 122.45572917 30.84765625 122.68359375 C28.98859771 122.81886614 28.98859771 122.81886614 28 124 C27.67 127.96 27.34 131.92 27 136 C18.09 136 9.18 136 0 136 C-0.33 132.37 -0.66 128.74 -1 125 C-1.33 124.34 -1.66 123.68 -2 123 C-5.96 122.505 -5.96 122.505 -10 122 C-10 110.78 -10 99.56 -10 88 C-5.38 87.67 -0.76 87.34 4 87 C3.67 86.34 3.34 85.68 3 85 C2.89993705 83.43799949 2.86167369 81.87182754 2.85473633 80.30664062 C2.84835648 79.33223022 2.84197662 78.35781982 2.83540344 77.35388184 C2.83429062 76.29866333 2.8331778 75.24344482 2.83203125 74.15625 C2.82870285 73.07621704 2.82537445 71.99618408 2.82194519 70.88342285 C2.81687625 68.59692817 2.81453685 66.31042608 2.81469727 64.02392578 C2.81250906 60.51452545 2.79434808 57.00543848 2.77539062 53.49609375 C2.77245712 51.27864691 2.77047204 49.06119858 2.76953125 46.84375 C2.76234573 45.78853149 2.75516022 44.73331299 2.74775696 43.64611816 C2.75083359 42.67170776 2.75391022 41.69729736 2.75708008 40.69335938 C2.75565506 39.83335327 2.75423004 38.97334717 2.75276184 38.08728027 C3 36 3 36 5 34 C0.05 33.67 -4.9 33.34 -10 33 C-10 26.73 -10 20.46 -10 14 C-7.36 13.67 -4.72 13.34 -2 13 C-0.03927451 9.07854902 -0.39693727 4.36631 0 0 Z " fill="#FDFDFE" transform="translate(331,155)"/>
<path d="M0 0 C8.91 0 17.82 0 27 0 C27.495 5.94 27.495 5.94 28 12 C29.71626405 13.92091092 29.71626405 13.92091092 37 14 C37 20.6 37 27.2 37 34 C34.03 35.32 31.06 36.64 28 38 C22.02683986 41.99572546 19.34110476 47.31890701 17 54 C15.71929283 62.19460004 16.73566704 69.833902 21 77 C25.6131869 83.21465593 29.48110167 84.65826741 37 88 C37 99.22 37 110.44 37 122 C34.36 122.33 31.72 122.66 29 123 C25.89982079 126.10017921 27.36409758 131.63082901 27 136 C18.09 136 9.18 136 0 136 C-0.495 130.06 -0.495 130.06 -1 124 C-2.71626405 122.07908908 -2.71626405 122.07908908 -10 122 C-10 104.84 -10 87.68 -10 70 C-5.71 68.35 -1.42 66.7 3 65 C9.13105979 60.66050947 9.13105979 60.66050947 12 54 C12.64044196 48.62232072 12.4355975 44.10443189 9.3828125 39.50390625 C4.19794096 33.86499229 -2.75381166 33.40256602 -10 33 C-10 26.73 -10 20.46 -10 14 C-7.36 13.67 -4.72 13.34 -2 13 C1.10017921 9.89982079 -0.36409758 4.36917099 0 0 Z " fill="#FEFEFE" transform="translate(248,155)"/>
<path d="M0 0 C8.30178442 6.18683495 14.16754088 12.97555771 17 23 C18.12151547 33.88913277 16.51807919 43.2528992 10.25 52.3125 C3.86045638 60.10423774 -4.51923829 64.98969986 -14.57421875 66.34765625 C-25.2483413 66.73306413 -34.00397205 62.93615177 -42 56 C-49.91112055 47.71711627 -52.53290737 40.35513341 -52.41552734 28.99926758 C-51.98038571 17.55611051 -47.109307 10.78093718 -39 3 C-28.59020449 -5.8256962 -11.62704307 -6.91688527 0 0 Z " fill="#FEFEFE" transform="translate(321,68)"/>
<path d="M0 0 C4.95 0 9.9 0 15 0 C15 4.29 15 8.58 15 13 C17.97 13.33 20.94 13.66 24 14 C24 20.6 24 27.2 24 34 C21.36 34.33 18.72 34.66 16 35 C16.639375 35.9075 17.27875 36.815 17.9375 37.75 C21.58889186 43.50370838 21.66044301 49.3050983 21 56 C19.47030839 61.23106974 17.27028912 65.4922625 13 69 C16.63 68.34 20.26 67.68 24 67 C24 85.15 24 103.3 24 122 C19.545 122.495 19.545 122.495 15 123 C15 127.29 15 131.58 15 136 C10.05 136 5.1 136 0 136 C0 120.16 0 104.32 0 88 C4.95 87.505 4.95 87.505 10 87 C9.67 86.34 9.34 85.68 9 85 C8.90960094 83.3351936 8.88244743 81.66676579 8.88647461 79.99951172 C8.88655014 78.95858368 8.88662567 77.91765564 8.88670349 76.84518433 C8.89186478 75.71807037 8.89702606 74.59095642 8.90234375 73.4296875 C8.9037587 72.27832306 8.90517365 71.12695862 8.90663147 69.94070435 C8.91224284 66.25211014 8.9247973 62.56357595 8.9375 58.875 C8.94251353 56.37890712 8.94707669 53.8828133 8.95117188 51.38671875 C8.96221597 45.25779191 8.9789652 39.12890024 9 33 C6.03 33 3.06 33 0 33 C0 22.11 0 11.22 0 0 Z " fill="#FDFDFD" transform="translate(178,155)"/>
<path d="M0 0 C4.62 0 9.24 0 14 0 C14 29 14 58 14 87 C12.68 87 11.36 87 10 87 C8.75822479 84.51644959 8.87963319 82.86892378 8.88647461 80.09130859 C8.88655014 79.07040131 8.88662567 78.04949402 8.88670349 76.99765015 C8.89186478 75.89240997 8.89702606 74.7871698 8.90234375 73.6484375 C8.9037587 72.5192691 8.90517365 71.39010071 8.90663147 70.22671509 C8.91224256 66.60945012 8.92479697 62.99224636 8.9375 59.375 C8.94251357 56.92708423 8.94707672 54.47916748 8.95117188 52.03125 C8.96221561 46.02080964 8.97948771 40.01041521 9 34 C4.38 34 -0.24 34 -5 34 C-4.99476318 35.53446777 -4.98952637 37.06893555 -4.98413086 38.64990234 C-4.96607229 44.3264915 -4.95456483 50.00307809 -4.94506836 55.6796875 C-4.94003011 58.13965278 -4.9331994 60.59961505 -4.92456055 63.05957031 C-4.91247277 66.58920025 -4.90676671 70.11879069 -4.90234375 73.6484375 C-4.89718246 74.75367767 -4.89202118 75.85891785 -4.88670349 76.99765015 C-4.88662796 78.01855743 -4.88655243 79.03946472 -4.88647461 80.09130859 C-4.884254 80.99287689 -4.88203339 81.89444519 -4.87974548 82.82333374 C-5 85 -5 85 -6 87 C0.6 87.33 7.2 87.66 14 88 C14 103.84 14 119.68 14 136 C9.38 136 4.76 136 0 136 C-0.22786458 133.20052083 -0.45572917 130.40104167 -0.68359375 127.6015625 C-0.84965626 125.02072387 -0.84965626 125.02072387 -2 123 C-3.89533342 122.53476937 -3.89533342 122.53476937 -6.0625 122.375 C-8.0115625 122.189375 -8.0115625 122.189375 -10 122 C-10 86 -10 50 -10 14 C-6.92382812 13.70703125 -6.92382812 13.70703125 -3.84765625 13.4140625 C-3.23792969 13.27742187 -2.62820313 13.14078125 -2 13 C-0.71553081 10.43106162 -0.67022856 8.23423663 -0.4375 5.375 C-0.2209375 2.714375 -0.2209375 2.714375 0 0 Z " fill="#FDFDFE" transform="translate(414,155)"/>
<path d="M0 0 C86.46 0 172.92 0 262 0 C249.51369769 9.98904185 235.54293138 9.72850072 220.26391602 9.64697266 C218.11034408 9.65376155 215.95677796 9.66267177 213.80322266 9.67352295 C207.99522372 9.69617274 202.18767258 9.68753891 196.37966657 9.67162752 C190.2759623 9.65889236 184.17229417 9.67072982 178.06858826 9.67855835 C167.82096537 9.6876335 157.57352314 9.67572377 147.32592773 9.65185547 C135.51231541 9.62465579 123.69913477 9.63345889 111.88553292 9.6609875 C101.70753261 9.68374712 91.52966154 9.68684498 81.35164398 9.67379415 C75.2881911 9.66603633 69.22494047 9.66485632 63.16150093 9.68147659 C57.45747761 9.69602181 51.75400556 9.6857171 46.0500412 9.65700531 C43.96849669 9.65044761 41.88690501 9.65219985 39.80537987 9.66331863 C25.39435152 9.7331437 11.71907227 9.37525781 0 0 Z " fill="#E4EDFA" transform="translate(172,310)"/>
<path d="M0 0 C5.94 0 11.88 0 18 0 C18 6.27 18 12.54 18 19 C17.34 19 16.68 19 16 19 C16 22.96 16 26.92 16 31 C16.66 31 17.32 31 18 31 C18 56.41 18 81.82 18 108 C12.06 108 6.12 108 0 108 C0 96.78 0 85.56 0 74 C2.97 73.505 2.97 73.505 6 73 C5.34 72.34 4.68 71.68 4 71 C3.8046875 68.3984375 3.8046875 68.3984375 3.875 65.375 C3.89304687 64.37210937 3.91109375 63.36921875 3.9296875 62.3359375 C3.96449219 61.17964844 3.96449219 61.17964844 4 60 C2.68 59.67 1.36 59.34 0 59 C0 47.12 0 35.24 0 23 C0.99 23.33 1.98 23.66 3 24 C3 24.66 3 25.32 3 26 C3.66 26 4.32 26 5 26 C5.268125 25.38125 5.53625 24.7625 5.8125 24.125 C7 22 7 22 10 20 C6.7 19.67 3.4 19.34 0 19 C0 12.73 0 6.46 0 0 Z " fill="#FCFDFD" transform="translate(377,169)"/>
<path d="M0 0 C8.30178442 6.18683495 14.16754088 12.97555771 17 23 C18.12151547 33.88913277 16.51807919 43.2528992 10.25 52.3125 C3.86045638 60.10423774 -4.51923829 64.98969986 -14.57421875 66.34765625 C-25.2483413 66.73306413 -34.00397205 62.93615177 -42 56 C-49.91112055 47.71711627 -52.53290737 40.35513341 -52.41552734 28.99926758 C-51.98038571 17.55611051 -47.109307 10.78093718 -39 3 C-28.59020449 -5.8256962 -11.62704307 -6.91688527 0 0 Z M-38.74609375 15.05859375 C-43.76099907 22.82310448 -44.3355182 30.43629038 -42.49609375 39.4765625 C-39.85423374 47.29646814 -35.23914383 51.23433901 -28.28125 55.01953125 C-22.49428428 57.50673741 -15.67943339 58.11534719 -9.62890625 56.28125 C-0.60044974 52.50543682 3.75116387 47.89815252 7.859375 39.0546875 C10.53022489 31.90193198 9.31300456 26.21532271 6.25 19.35546875 C2.35484626 12.01553843 -3.00668079 7.4958507 -11 5 C-22.24248687 3.30328112 -31.53734661 6.12835476 -38.74609375 15.05859375 Z " fill="#E4EDFA" transform="translate(321,68)"/>
<path d="M0 0 C5.94 0 11.88 0 18 0 C18 6.27 18 12.54 18 19 C14.37 19.33 10.74 19.66 7 20 C7.99 20.99 8.98 21.98 10 23 C10.3742218 25.16957092 10.3742218 25.16957092 10.37231445 27.71508789 C10.37854324 28.66940201 10.38477203 29.62371613 10.39118958 30.60694885 C10.38197983 31.63513229 10.37277008 32.66331573 10.36328125 33.72265625 C10.36377975 34.77907822 10.36427826 35.83550018 10.36479187 36.92393494 C10.36245083 39.15739828 10.35272061 41.39086424 10.33618164 43.62426758 C10.31256898 47.05248461 10.31562311 50.47992535 10.32226562 53.90820312 C10.31668973 56.07552549 10.30958041 58.24284457 10.30078125 60.41015625 C10.30214836 61.95546776 10.30214836 61.95546776 10.30354309 63.53199768 C10.29401108 64.48315964 10.28447906 65.43432159 10.2746582 66.41430664 C10.27005081 67.25353165 10.26544342 68.09275665 10.26069641 68.95741272 C10 71 10 71 8 73 C11.3 73.33 14.6 73.66 18 74 C18 85.22 18 96.44 18 108 C12.06 108 6.12 108 0 108 C-0.02256837 99.6899772 -0.04092518 91.37997812 -0.05181217 83.06993294 C-0.05703667 79.2114867 -0.06412649 75.35306247 -0.07543945 71.49462891 C-0.08628368 67.7728847 -0.09228011 64.0511617 -0.09487724 60.32940292 C-0.09672871 58.90759828 -0.10034403 57.48579483 -0.10573006 56.06399918 C-0.11296072 54.0766945 -0.11340823 52.08936861 -0.11352539 50.10205078 C-0.115746 48.96953888 -0.11796661 47.83702698 -0.12025452 46.67019653 C0 44 0 44 1 42 C1.09649939 40.0018949 1.12980872 38.0004282 1.125 36 C1.12757813 34.9275 1.13015625 33.855 1.1328125 32.75 C1.1872341 30.03817948 1.1872341 30.03817948 0 28 C-0.08543895 25.89471067 -0.10714725 23.78668843 -0.09765625 21.6796875 C-0.09443359 20.42285156 -0.09121094 19.16601562 -0.08789062 17.87109375 C-0.07951172 16.55238281 -0.07113281 15.23367187 -0.0625 13.875 C-0.05748489 12.53515789 -0.05292201 11.195314 -0.04882812 9.85546875 C-0.03701095 6.57029343 -0.01907501 3.28514119 0 0 Z " fill="#FAFBFB" transform="translate(211,169)"/>
<path d="M0 0 C5.28 0 10.56 0 16 0 C16.67546875 1.89363281 17.3509375 3.78726563 18.046875 5.73828125 C18.71547118 7.61174345 19.38406988 9.48520476 20.05273438 11.35864258 C20.51053494 12.64147798 20.96822093 13.92435428 21.42578125 15.20727539 C22.52771088 18.29678643 23.63240829 21.38518994 24.74414062 24.47119141 C25.55599275 26.75239487 26.34781916 29.04086865 27.11523438 31.33740234 C27.45361328 32.33336426 27.79199219 33.32932617 28.140625 34.35546875 C28.42969727 35.23227295 28.71876953 36.10907715 29.01660156 37.01245117 C29.34112305 37.66834229 29.66564453 38.3242334 30 39 C31.485 39.495 31.485 39.495 33 40 C33.04898438 40.75925781 33.09796875 41.51851562 33.1484375 42.30078125 C33.22320312 43.29464844 33.29796875 44.28851563 33.375 45.3125 C33.44460938 46.29863281 33.51421875 47.28476563 33.5859375 48.30078125 C33.83865472 51.21528433 33.83865472 51.21528433 36 54 C30.39 54 24.78 54 19 54 C17.14470448 48.62617144 15.29339246 43.25099384 13.44580078 37.87451172 C12.81636822 36.04470543 12.18583799 34.21527636 11.55419922 32.38623047 C10.64784295 29.76106984 9.74540942 27.13458946 8.84375 24.5078125 C8.55939087 23.68693146 8.27503174 22.86605042 7.98205566 22.02029419 C6 16.22774341 6 16.22774341 6 14 C4.68 14 3.36 14 2 14 C1.93941406 13.24074219 1.87882812 12.48148438 1.81640625 11.69921875 C1.73261719 10.70535156 1.64882813 9.71148437 1.5625 8.6875 C1.48128906 7.70136719 1.40007812 6.71523437 1.31640625 5.69921875 C1.08187441 2.90624401 1.08187441 2.90624401 0 0 Z " fill="#07254C" transform="translate(348,189)"/>
<path d="M0 0 C5.94 0 11.88 0 18 0 C17.67 0.66 17.34 1.32 17 2 C16.90497897 3.55686283 16.87205348 5.11773103 16.87060547 6.67749023 C16.86745331 7.64867294 16.86430115 8.61985565 16.86105347 9.62046814 C16.8630777 10.67254959 16.86510193 11.72463104 16.8671875 12.80859375 C16.86623077 13.88625504 16.86527405 14.96391632 16.86428833 16.07423401 C16.86360691 18.35653746 16.86545856 20.63884284 16.86962891 22.92114258 C16.87497247 26.41947784 16.86968529 29.9176844 16.86328125 33.41601562 C16.86394214 35.63020862 16.86522353 37.84440153 16.8671875 40.05859375 C16.86516327 41.10865097 16.86313904 42.15870819 16.86105347 43.24058533 C16.86420563 44.2149202 16.86735779 45.18925507 16.87060547 46.19311523 C16.87140106 47.05090073 16.87219666 47.90868622 16.87301636 48.79246521 C16.91372753 51.17655758 16.91372753 51.17655758 18 54 C11.73 54 5.46 54 -1 54 C-0.01 53.505 -0.01 53.505 1 53 C1.02529174 45.77344508 1.04284219 38.5469015 1.05493164 31.3203125 C1.05996989 28.86034722 1.0668006 26.40038495 1.07543945 23.94042969 C1.08752723 20.41079975 1.09323329 16.88120931 1.09765625 13.3515625 C1.10281754 12.24632233 1.10797882 11.14108215 1.11329651 10.00234985 C1.11340981 8.47098892 1.11340981 8.47098892 1.11352539 6.90869141 C1.115746 6.00712311 1.11796661 5.10555481 1.12025452 4.17666626 C1.1419285 1.95286252 1.1419285 1.95286252 0 0 Z " fill="#09264D" transform="translate(318,189)"/>
<path d="M0 0 C5.28 0 10.56 0 16 0 C16.02505615 1.52923096 16.0501123 3.05846191 16.07592773 4.6340332 C16.16996822 10.2976954 16.27019719 15.961234 16.37231445 21.62475586 C16.41567602 24.07785149 16.45735019 26.53097753 16.49731445 28.98413086 C16.55498721 32.50644101 16.61869052 36.02859784 16.68359375 39.55078125 C16.70030624 40.65086014 16.71701874 41.75093903 16.73423767 42.88435364 C16.75418289 43.90518539 16.77412811 44.92601715 16.79467773 45.9777832 C16.81799416 47.32680473 16.81799416 47.32680473 16.84178162 48.70307922 C16.91487339 51.16176469 16.91487339 51.16176469 18 54 C11.73 54 5.46 54 -1 54 C-0.01 53.505 -0.01 53.505 1 53 C1.02529174 45.77344508 1.04284219 38.5469015 1.05493164 31.3203125 C1.05996989 28.86034722 1.0668006 26.40038495 1.07543945 23.94042969 C1.08752723 20.41079975 1.09323329 16.88120931 1.09765625 13.3515625 C1.10281754 12.24632233 1.10797882 11.14108215 1.11329651 10.00234985 C1.11340981 8.47098892 1.11340981 8.47098892 1.11352539 6.90869141 C1.115746 6.00712311 1.11796661 5.10555481 1.12025452 4.17666626 C1.1419285 1.95286252 1.1419285 1.95286252 0 0 Z " fill="#09264E" transform="translate(171,189)"/>
<path d="M0 0 C4.62 0 9.24 0 14 0 C14.495 26.235 14.495 26.235 15 53 C15.66 53.33 16.32 53.66 17 54 C10.4 54 3.8 54 -3 54 C-2.01 53.505 -2.01 53.505 -1 53 C-0.67 35.51 -0.34 18.02 0 0 Z " fill="#08254D" transform="translate(409,189)"/>
<path d="M0 0 C0 15.84 0 31.68 0 48 C-5.94 48 -11.88 48 -18 48 C-18 36.45 -18 24.9 -18 13 C-15.36 11.68 -12.72 10.36 -10 9 C-7.75268581 6.99603946 -7.75268581 6.99603946 -6.125 4.8125 C-2.28571429 0 -2.28571429 0 0 0 Z " fill="#FDFDFE" transform="translate(312,229)"/>
<path d="M0 0 C4.95 0 9.9 0 15 0 C15.01981934 1.52923096 15.03963867 3.05846191 15.06005859 4.6340332 C15.13602523 10.29777738 15.22475646 15.96126164 15.31738281 21.62475586 C15.35570954 24.07782873 15.39055582 26.53095851 15.421875 28.98413086 C15.46744507 32.50655485 15.52545321 36.02858575 15.5859375 39.55078125 C15.59748871 40.65086014 15.60903992 41.75093903 15.62094116 42.88435364 C15.64081085 43.90518539 15.66068054 44.92601715 15.68115234 45.9777832 C15.69447601 46.87713089 15.70779968 47.77647858 15.7215271 48.70307922 C15.85841974 51.27569896 15.85841974 51.27569896 18 54 C11.73 54 5.46 54 -1 54 C-0.34 53.01 0.32 52.02 1 51 C1.29586621 48.77998391 1.29586621 48.77998391 1.24291992 46.30078125 C1.24599655 45.34969482 1.24907318 44.3986084 1.25224304 43.41870117 C1.24505753 42.39365479 1.23787201 41.3686084 1.23046875 40.3125 C1.23001053 39.25844971 1.22955231 38.20439941 1.2290802 37.1184082 C1.22605827 34.88914871 1.21817373 32.65989132 1.20581055 30.43066406 C1.18757257 27.01359598 1.18530076 23.59679914 1.18554688 20.1796875 C1.18063091 18.01562265 1.17480225 15.85155964 1.16796875 13.6875 C1.16685593 12.66245361 1.1657431 11.63740723 1.16459656 10.58129883 C1.15821671 9.6302124 1.15183685 8.67912598 1.14526367 7.69921875 C1.14145187 6.86221436 1.13764008 6.02520996 1.13371277 5.1628418 C1.08168806 2.81658626 1.08168806 2.81658626 0 0 Z " fill="#04224A" transform="translate(219,189)"/>
<path d="M0 0 C0.66 0 1.32 0 2 0 C2.26855804 0.77475174 2.26855804 0.77475174 2.5425415 1.56515503 C4.42184817 6.985179 6.30447881 12.40404035 8.18896484 17.82226562 C8.88999775 19.8392273 9.59020843 21.85647497 10.28955078 23.87402344 C11.30019775 26.78918488 12.31388692 29.70327381 13.328125 32.6171875 C13.63558655 33.50614716 13.9430481 34.39510681 14.25982666 35.31100464 C16.34177257 41.28001835 18.61725845 47.14434363 21 53 C14.4 53 7.8 53 1 53 C1.33 52.34 1.66 51.68 2 51 C2.60677842 44.5866892 0.72401409 39.52612081 -1.5 33.5625 C-1.83386719 32.64017578 -2.16773438 31.71785156 -2.51171875 30.76757812 C-3.33128955 28.50790435 -4.16086491 26.25246559 -5 24 C-5.99 24 -6.98 24 -8 24 C-5.96136383 15.72943539 -3.17712327 7.89885589 0 0 Z " fill="#0B294F" transform="translate(141,190)"/>
<path d="M0 0 C9.48974695 2.72907755 13.75801443 6.07752473 18.765625 14.66015625 C22.03138379 20.85062939 21.94896526 28.00405592 20.3515625 34.73046875 C17.23525547 43.32028942 12.0426804 49.52942805 3.796875 53.50390625 C2 54 2 54 -1 53 C-0.38125 52.34 0.2375 51.68 0.875 51 C6.0014233 43.76269652 5.33577927 35.08736764 5.3125 26.5625 C5.32861328 25.38623047 5.34472656 24.20996094 5.36132812 22.99804688 C5.36619131 14.29780934 3.94578542 7.70204464 0 0 Z " fill="#0C2950" transform="translate(292,189)"/>
<path d="M0 0 C-0.639375 0.9075 -1.27875 1.815 -1.9375 2.75 C-5.88569985 8.97140582 -5.25265797 15.245739 -5.29516602 22.45996094 C-5.3122088 24.46572908 -5.35606804 26.47121171 -5.40039062 28.4765625 C-5.45587527 37.06387775 -4.29882195 44.058219 -1 52 C-8.76019302 50.8848776 -12.64032578 47.04273781 -17.375 40.9375 C-21.30797935 33.82788348 -22.00365547 26.99307602 -21 19 C-18.30295159 10.42687272 -13.74123594 4.5562703 -6 0 C-3 -1 -3 -1 0 0 Z " fill="#0D2950" transform="translate(285,190)"/>
<path d="M0 0 C8.04130759 0.76583882 12.36596877 5.10378894 17.484375 10.90234375 C22.64183796 18.04037882 21.96275984 27.57190565 21 36 C19.10497868 42.42953662 14.68366471 47.50236018 9 51 C6.05193312 52.24129132 3.09530004 53.19985441 0 54 C0.61875 53.05125 1.2375 52.1025 1.875 51.125 C6.28261943 43.3508395 6.36133747 34.35597251 6.3125 25.625 C6.30730347 24.11752197 6.30730347 24.11752197 6.30200195 22.57958984 C6.16761461 11.99659356 6.16761461 11.99659356 3 2 C2.01 1.67 1.02 1.34 0 1 C0 0.67 0 0.34 0 0 Z " fill="#0B284F" transform="translate(469,189)"/>
<path d="M0 0 C-0.61875 0.825 -1.2375 1.65 -1.875 2.5 C-6.50159361 9.53551481 -6.38583287 17.6075014 -6.375 25.75 C-6.37556396 26.8117041 -6.37612793 27.8734082 -6.37670898 28.96728516 C-6.25570443 37.58307382 -4.86799624 44.26400752 -1 52 C-6.97383076 51.70130846 -10.85718614 49.10871663 -15 45 C-21.01530364 36.43634112 -21.96268008 28.35440781 -21 18 C-18.63594085 9.81416902 -13.20335065 3.99265065 -5.89453125 -0.2109375 C-3.53515481 -1.19360563 -2.36346657 -0.8440952 0 0 Z " fill="#09264D" transform="translate(463,190)"/>
<path d="M0 0 C1.65 0.33 3.3 0.66 5 1 C5.061875 1.86625 5.061875 1.86625 5.125 2.75 C6.44065958 6.13312465 8.96552364 7.19222685 12 9 C11.67 9.99 11.34 10.98 11 12 C9.02 12 7.04 12 5 12 C5 13.98 5 15.96 5 18 C6.423125 18.433125 6.423125 18.433125 7.875 18.875 C11 20 11 20 13 22 C13.43805091 25.94245817 13.64475483 28.12497559 11.25 31.375 C9.07220172 32.94785432 7.63361256 33.62376963 5 34 C4.505 36.475 4.505 36.475 4 39 C2.68 39 1.36 39 0 39 C-0.226875 38.236875 -0.45375 37.47375 -0.6875 36.6875 C-1.7869739 33.80714341 -1.7869739 33.80714341 -4.5625 32.5 C-7 31 -7 31 -7.8125 28.3125 C-7.874375 27.549375 -7.93625 26.78625 -8 26 C-4.25 24.875 -4.25 24.875 -2 26 C-1.49620971 23.71305777 -1.49620971 23.71305777 -2 21 C-2.99 20.195625 -3.98 19.39125 -5 18.5625 C-8 16 -8 16 -8.625 12.9375 C-7.87275049 9.40192732 -6.88068725 8.1399391 -4 6 C-3.01 6 -2.02 6 -1 6 C-0.67 4.02 -0.34 2.04 0 0 Z " fill="#E8F8E1" transform="translate(301,79)"/>
<path d="M0 0 C5.94 0 11.88 0 18 0 C18 11.88 18 23.76 18 36 C15 33 15 33 12.9375 29.625 C9.68013997 24.88976366 5.15664717 23.26892475 0 21 C0 14.07 0 7.14 0 0 Z " fill="#FCFDFD" transform="translate(294,169)"/>
<path d="M0 0 C5.45152027 -0.44502206 9.83542672 -0.4175999 14.4921875 2.6796875 C17.86484887 5.63295057 19.66323325 8.80336232 20.34375 13.2421875 C20.5757211 18.9834722 19.51149252 23.14505551 15.62890625 27.55859375 C10.94632415 32.06150843 5.30424604 34.54440179 -1 36 C-1.99 35.67 -2.98 35.34 -4 35 C-2.8553125 33.9790625 -2.8553125 33.9790625 -1.6875 32.9375 C4.38676261 26.2981897 4.5194605 20.42227565 4.37109375 11.625 C3.88278323 6.85497719 2.60116737 3.98303754 0 0 Z " fill="#0A274E" transform="translate(241,189)"/>
<path d="M0 0 C4.95618861 -0.35261421 8.82917054 -0.5637327 13.375 1.625 C17.19646741 5.08251814 19.67175079 7.56157731 20.3828125 12.84375 C20.55884055 17.58477203 20.41546248 21.08598255 18.4375 25.4375 C13.24568415 30.89556282 7.51223096 34.57325846 0 36 C-0.99 35.67 -1.98 35.34 -3 35 C-2.59007812 34.56429687 -2.18015625 34.12859375 -1.7578125 33.6796875 C3.96224713 27.35751633 5.41229473 22.25956415 5.26171875 13.7578125 C4.76451845 8.51865709 2.92221815 4.38332722 0 0 Z " fill="#09264D" transform="translate(193,189)"/>
<path d="M0 0 C3.5442914 0.80009747 4.97740702 2.51479019 6.97265625 5.4453125 C7.59765625 8.9453125 7.59765625 8.9453125 6.97265625 12.4453125 C4.54412243 15.7309759 2.84990811 17.15289521 -1.02734375 18.4453125 C-4.6769495 18.4453125 -6.20154302 17.72165198 -9.02734375 15.4453125 C-11.1283597 12.7712922 -11.02581351 11.40246565 -10.90234375 7.9453125 C-9.33561354 1.67839165 -6.62082135 -0.37126101 0 0 Z " fill="#F4F5F7" transform="translate(334.02734375,321.5546875)"/>
<path d="M0 0 C0 16.17 0 32.34 0 49 C-0.66 49 -1.32 49 -2 49 C-6.07036771 40.17779507 -6.55467949 32.30980963 -6.375 22.6875 C-6.37207775 21.3431015 -6.3707674 19.99869851 -6.37109375 18.65429688 C-6.2681352 7.25449739 -6.2681352 7.25449739 -4 2 C-1 0 -1 0 0 0 Z " fill="#FAFBFC" transform="translate(285,192)"/>
<path d="M0 0 C3.75979392 1.05909688 5.09536663 3.27164342 6.94140625 6.546875 C7.01041036 10.54911335 6.57243668 12.6587581 4.25390625 15.921875 C1.30902702 17.9912496 -0.44833038 18.546875 -4.05859375 18.546875 C-9.56508726 15.53388799 -9.56508726 15.53388799 -11.05859375 12.546875 C-11.54461963 8.25364641 -11.52100983 6.22604861 -9.05859375 2.609375 C-5.74275684 0.32973712 -3.94956664 -0.26979962 0 0 Z " fill="#EEF0F3" transform="translate(175.05859375,321.453125)"/>
<path d="M0 0 C12.54 0 25.08 0 38 0 C38 1.98 38 3.96 38 6 C25.46 6 12.92 6 0 6 C0 4.02 0 2.04 0 0 Z " fill="#FCFDFE" transform="translate(284,285)"/>
<path d="M0 0 C5 2 5 2 6.78515625 4.66796875 C9.47549731 12.04694279 9.24010245 21.03225056 6.25 28.3125 C4.53306108 31.88945608 3.88620877 32.05689562 0 34 C0 22.78 0 11.56 0 0 Z " fill="#FAFBFC" transform="translate(238,189)"/>
<path d="M0 0 C12.54 0 25.08 0 38 0 C38 1.65 38 3.3 38 5 C25.46 5 12.92 5 0 5 C0 3.35 0 1.7 0 0 Z " fill="#FEFEFE" transform="translate(367,286)"/>
<path d="M0 0 C12.54 0 25.08 0 38 0 C38 1.65 38 3.3 38 5 C25.46 5 12.92 5 0 5 C0 3.35 0 1.7 0 0 Z " fill="#FEFEFE" transform="translate(201,286)"/>
<path d="M0 0 C12.54 0 25.08 0 38 0 C38 1.65 38 3.3 38 5 C25.46 5 12.92 5 0 5 C0 3.35 0 1.7 0 0 Z " fill="#FEFEFE" transform="translate(367,155)"/>
<path d="M0 0 C12.54 0 25.08 0 38 0 C38 1.65 38 3.3 38 5 C25.46 5 12.92 5 0 5 C0 3.35 0 1.7 0 0 Z " fill="#FFFFFF" transform="translate(284,155)"/>
<path d="M0 0 C12.54 0 25.08 0 38 0 C38 1.65 38 3.3 38 5 C25.46 5 12.92 5 0 5 C0 3.35 0 1.7 0 0 Z " fill="#FEFEFE" transform="translate(201,155)"/>
<path d="M0 0 C5.61 0 11.22 0 17 0 C17 0.33 17 0.66 17 1 C12.05 1.33 7.1 1.66 2 2 C2.33 2.33 2.66 2.66 3 3 C3.0983867 4.52404807 3.12798534 6.05261413 3.12939453 7.57983398 C3.13412277 9.04156288 3.13412277 9.04156288 3.13894653 10.53282166 C3.1369223 11.59320145 3.13489807 12.65358124 3.1328125 13.74609375 C3.13376923 14.82754166 3.13472595 15.90898956 3.13571167 17.02320862 C3.13639371 19.31568459 3.13453777 21.60816248 3.13037109 23.90063477 C3.12502836 27.41882655 3.13031264 30.93689037 3.13671875 34.45507812 C3.13605787 36.67708362 3.13477651 38.89908903 3.1328125 41.12109375 C3.13483673 42.17944931 3.13686096 43.23780487 3.13894653 44.32823181 C3.13579437 45.3058699 3.13264221 46.283508 3.12939453 47.29077148 C3.12859894 48.15379379 3.12780334 49.0168161 3.12698364 49.9059906 C3 52 3 52 2 54 C1.34 54 0.68 54 0 54 C0 36.18 0 18.36 0 0 Z " fill="#DAE3F1" transform="translate(170,188)"/>
<path d="M0 0 C1.5675 -0.061875 3.135 -0.12375 4.75 -0.1875 C6.07257813 -0.23970703 6.07257813 -0.23970703 7.421875 -0.29296875 C10.44671583 0.05076316 11.75583602 1.00227459 14 3 C13.38722388 5.96175123 12.74627478 7.38058783 11 10 C12.98 12.97 12.98 12.97 15 16 C14.01 16.33 13.02 16.66 12 17 C11.608125 16.030625 11.21625 15.06125 10.8125 14.0625 C9.32405113 10.77823609 9.32405113 10.77823609 6.3125 10.125 C5.549375 10.08375 4.78625 10.0425 4 10 C4 12.31 4 14.62 4 17 C2.68 16.67 1.36 16.34 0 16 C0 10.72 0 5.44 0 0 Z " fill="#566A85" transform="translate(204,322)"/>
<path d="M0 0 C0.66 0 1.32 0 2 0 C4.22398115 7.16813049 4.33290074 13.96674721 4.3125 21.4375 C4.32861328 22.61376953 4.34472656 23.79003906 4.36132812 25.00195312 C4.36524227 32.00435321 3.63451136 37.50061182 1 44 C0.67 44 0.34 44 0 44 C0 29.48 0 14.96 0 0 Z " fill="#F9FAFB" transform="translate(294,194)"/>
<path d="M0 0 C1.5675 -0.061875 3.135 -0.12375 4.75 -0.1875 C6.07257813 -0.23970703 6.07257813 -0.23970703 7.421875 -0.29296875 C10.44671583 0.05076316 11.75583602 1.00227459 14 3 C13.42655063 5.86724686 13.1385485 6.8614515 11 9 C12.32 11.64 13.64 14.28 15 17 C12 16 12 16 10.625 13.5 C9.22066726 10.75147228 9.22066726 10.75147228 6.3125 10.1875 C5.549375 10.125625 4.78625 10.06375 4 10 C4 12.31 4 14.62 4 17 C3.01 17 2.02 17 1 17 C0.67 11.39 0.34 5.78 0 0 Z " fill="#556984" transform="translate(363,322)"/>
<path d="M0 0 C0.99 0 1.98 0 3 0 C3 2.64 3 5.28 3 8 C5.64 7.34 8.28 6.68 11 6 C10.67 4.35 10.34 2.7 10 1 C10.99 1.33 11.98 1.66 13 2 C12.125 6.75 12.125 6.75 11 9 C11.99 9.33 12.98 9.66 14 10 C14.125 12.375 14.125 12.375 14 15 C12 17 12 17 9.1796875 17.1953125 C6.11979167 17.13020833 3.05989583 17.06510417 0 17 C0 11.39 0 5.78 0 0 Z " fill="#324A6B" transform="translate(388,322)"/>
<path d="M0 0 C3 1 3 1 3.9831543 2.58227539 C4.3994812 3.57988892 4.3994812 3.57988892 4.82421875 4.59765625 C5.13037109 5.31630859 5.43652344 6.03496094 5.75195312 6.77539062 C6.06068359 7.53013672 6.36941406 8.28488281 6.6875 9.0625 C7.00783203 9.82111328 7.32816406 10.57972656 7.65820312 11.36132812 C8.44850702 13.23682542 9.22552197 15.1179123 10 17 C8.68 17 7.36 17 6 17 C6 15.68 6 14.36 6 13 C1.545 13.495 1.545 13.495 -3 14 C-3 14.99 -3 15.98 -3 17 C-3.99 16.67 -4.98 16.34 -6 16 C-5.47599609 14.89591797 -5.47599609 14.89591797 -4.94140625 13.76953125 C-4.48636719 12.79371094 -4.03132813 11.81789063 -3.5625 10.8125 C-3.11003906 9.84957031 -2.65757812 8.88664062 -2.19140625 7.89453125 C-1.09618578 5.23368414 -0.45045204 2.83215245 0 0 Z " fill="#EAECEF" transform="translate(411,322)"/>
<path d="M0 0 C1.32 0 2.64 0 4 0 C4.33 2.31 4.66 4.62 5 7 C7.52588702 4.63707344 8.88820837 3.33537489 10 0 C11.32 0.33 12.64 0.66 14 1 C12.35 2.65 10.7 4.3 9 6 C9.61875 6.70125 10.2375 7.4025 10.875 8.125 C13.0427009 11.05777181 14.02655555 13.51182406 15 17 C14.01 17 13.02 17 12 17 C11.01 14.69 10.02 12.38 9 10 C7.68 10 6.36 10 5 10 C4.67 12.31 4.34 14.62 4 17 C3.01 17 2.02 17 1 17 C0.67 11.39 0.34 5.78 0 0 Z " fill="#62758E" transform="translate(444,322)"/>
<path d="M0 0 C4.57843858 1.14460964 5.56729335 2.29346205 8.625 5.75 C9.40101563 6.61109375 10.17703125 7.4721875 10.9765625 8.359375 C12.90356604 10.87415182 14.00082416 13.0132163 15 16 C10.84387175 12.60271539 7.29400663 9.27000859 4 5 C3.34 4.67 2.68 4.34 2 4 C2.33 8.29 2.66 12.58 3 17 C2.01 16.67 1.02 16.34 0 16 C0 10.72 0 5.44 0 0 Z " fill="#5A6E88" transform="translate(424,322)"/>
<path d="M0 0 C3.375 -0.125 3.375 -0.125 7 0 C7.66 0.66 8.32 1.32 9 2 C8.46428571 5.53571429 8.46428571 5.53571429 7 7 C4.66702567 7.04092937 2.33294775 7.04241723 0 7 C0 4.69 0 2.38 0 0 Z " fill="#FDFDFE" transform="translate(391,331)"/>
<path d="M0 0 C2.64 0 5.28 0 8 0 C8 1.98 8 3.96 8 6 C5.09399739 7.25664978 3.20395416 8 0 8 C0 5.36 0 2.72 0 0 Z " fill="#EAEDF0" transform="translate(391,322)"/>
<path d="M0 0 C3.3 0 6.6 0 10 0 C9.2575 0.70125 8.515 1.4025 7.75 2.125 C5.743384 4.22282582 4.28910331 5.93028495 2.75 8.3125 C1.88375 9.6428125 1.88375 9.6428125 1 11 C0.67 11 0.34 11 0 11 C0 7.37 0 3.74 0 0 Z " fill="#0B284F" transform="translate(393,189)"/>
<path d="M0 0 C4.73751475 1.18437869 5.15741989 2.12377253 7.75 6.0625 C8.36359375 6.98160156 8.9771875 7.90070313 9.609375 8.84765625 C10.06828125 9.55792969 10.5271875 10.26820313 11 11 C8 11 8 11 6.61328125 9.6875 C5.40885417 8.125 4.20442708 6.5625 3 5 C3 8.96 3 12.92 3 17 C2.01 16.67 1.02 16.34 0 16 C0 10.72 0 5.44 0 0 Z " fill="#4D627E" transform="translate(254,322)"/>
<path d="M0 0 C1.65 0 3.3 0 5 0 C5.71614583 1.72526042 6.43229167 3.45052083 7.1484375 5.17578125 C8.06806692 7.26533932 8.06806692 7.26533932 10 10 C10.07905064 12.33199388 10.08798769 14.66832622 10 17 C8.68 16.67 7.36 16.34 6 16 C6.1546875 14.7625 6.1546875 14.7625 6.3125 13.5 C5.88525991 8.71491095 3.6647634 5.87919656 1 2 C0.67 1.34 0.34 0.68 0 0 Z " fill="#344D6D" transform="translate(306,322)"/>
<path d="M0 0 C0.66 0 1.32 0 2 0 C2 5.61 2 11.22 2 17 C1.01 17 0.02 17 -1 17 C-1.02684679 14.35409986 -1.04676357 11.70846904 -1.0625 9.0625 C-1.07087891 8.30775391 -1.07925781 7.55300781 -1.08789062 6.77539062 C-1.09652441 4.85005687 -1.05224333 2.92464419 -1 1 C-0.67 0.67 -0.34 0.34 0 0 Z " fill="#455B79" transform="translate(271,322)"/>
<path d="M0 0 C1.99954746 -0.04254356 4.00041636 -0.04080783 6 0 C7 1 7 1 7.0625 3.5625 C7.041875 4.366875 7.02125 5.17125 7 6 C4.69 6.66 2.38 7.32 0 8 C0 5.36 0 2.72 0 0 Z " fill="#FCFCFD" transform="translate(367,323)"/>
<path d="M0 0 C2.31 0.33 4.62 0.66 7 1 C7 2.65 7 4.3 7 6 C4.35261084 7.4606285 3.10551666 8 0 8 C0 5.36 0 2.72 0 0 Z " fill="#FAFAFB" transform="translate(208,323)"/>
<path d="M0 0 C3.3 0 6.6 0 10 0 C10 3.63 10 7.26 10 11 C9.46375 10.278125 8.9275 9.55625 8.375 8.8125 C6.53443943 6.6328888 4.9291455 5.0212012 2.75 3.25 C1.8425 2.5075 0.935 1.765 0 1 C0 0.67 0 0.34 0 0 Z " fill="#0A284F" transform="translate(429,189)"/>
<path d="M0 0 C0.99 0 1.98 0 3 0 C3.07347656 1.46373047 3.07347656 1.46373047 3.1484375 2.95703125 C3.22320312 4.22933594 3.29796875 5.50164062 3.375 6.8125 C3.44460937 8.07707031 3.51421875 9.34164063 3.5859375 10.64453125 C3.76102939 14.12755234 3.76102939 14.12755234 6 17 C2.83884224 15.63016497 2.0072908 15.0109362 0 12 C-0.1953125 9.08203125 -0.1953125 9.08203125 -0.125 5.8125 C-0.10695312 4.72582031 -0.08890625 3.63914062 -0.0703125 2.51953125 C-0.04710937 1.68808594 -0.02390625 0.85664063 0 0 Z " fill="#415876" transform="translate(185,322)"/>
<path d="M0 0 C0.66 0.99 1.32 1.98 2 3 C3.32 4.65 4.64 6.3 6 8 C1.38 8 -3.24 8 -8 8 C-6.35 6.68 -4.7 5.36 -3 4 C-1.23676495 1.87396815 -1.23676495 1.87396815 0 0 Z " fill="#0D2A50" transform="translate(125,235)"/>
<path d="M0 0 C1.65 0 3.3 0 5 0 C7.45417612 5.673142 9.46246904 10.81839396 10 17 C8.68 16.67 7.36 16.34 6 16 C6.12375 15.21625 6.2475 14.4325 6.375 13.625 C5.81784913 8.23920829 2.95154456 4.44488555 0 0 Z " fill="#233D60" transform="translate(147,322)"/>
<path d="M0 0 C3.65316671 1.24976756 4.78065836 1.67098753 7 5 C7.3468602 8.81546222 7.53366895 11.13278796 5.5 14.4375 C5.005 14.953125 4.51 15.46875 4 16 C3.34 15.67 2.68 15.34 2 15 C2.33 14.67 2.66 14.34 3 14 C3.23875423 11.77168647 3.23875423 11.77168647 3.25 9.1875 C3.28867187 7.87845703 3.28867187 7.87845703 3.328125 6.54296875 C2.94334919 3.56095623 1.96899223 2.2228886 0 0 Z " fill="#3B5271" transform="translate(334,322)"/>
<path d="M0 0 C3 1 3 1 3.9831543 2.58227539 C4.26070557 3.24735107 4.53825684 3.91242676 4.82421875 4.59765625 C5.13037109 5.31630859 5.43652344 6.03496094 5.75195312 6.77539062 C6.06068359 7.53013672 6.36941406 8.28488281 6.6875 9.0625 C7.00783203 9.82111328 7.32816406 10.57972656 7.65820312 11.36132812 C8.44850702 13.23682542 9.22552197 15.1179123 10 17 C8.68 17 7.36 17 6 17 C1.77676538 5.47835991 1.77676538 5.47835991 0 0 Z " fill="#294264" transform="translate(411,322)"/>
<path d="M0 0 C0.66 0 1.32 0 2 0 C2.268125 0.598125 2.53625 1.19625 2.8125 1.8125 C4.04401889 4.32810722 4.04401889 4.32810722 7 7 C2.71 7 -1.58 7 -6 7 C-5.195625 6.21625 -4.39125 5.4325 -3.5625 4.625 C-1.01309583 2.28017144 -1.01309583 2.28017144 0 0 Z " fill="#153157" transform="translate(349,236)"/>
<path d="M0 0 C1.32 0.66 2.64 1.32 4 2 C3.42655063 4.86724686 3.1385485 5.8614515 1 8 C2.32 10.64 3.64 13.28 5 16 C1.22471696 14.74157232 0.89332955 13.37506571 -1 10 C-1.66 9.34 -2.32 8.68 -3 8 C-2.01 7.34 -1.02 6.68 0 6 C0.2502157 2.91634129 0.2502157 2.91634129 0 0 Z " fill="#2C4667" transform="translate(373,323)"/>
<path d="M0 0 C1 2 1 2 0.8125 5.8125 C0.74323695 9.26935601 0.95825281 9.93737922 3 13 C3.66 13.66 4.32 14.32 5 15 C1.68682445 14.73136414 0.36123646 14.40940132 -1.875 11.875 C-3.32826926 8.16108967 -2.94082291 5.83566262 -2 2 C-1.34 1.34 -0.68 0.68 0 0 Z " fill="#334B6B" transform="translate(326,324)"/>
<path d="M0 0 C1.32 0.33 2.64 0.66 4 1 C3.67 6.28 3.34 11.56 3 17 C2.01 16.67 1.02 16.34 0 16 C0 10.72 0 5.44 0 0 Z " fill="#243E61" transform="translate(246,322)"/>
<path d="M0 0 C1.32 0.33 2.64 0.66 4 1 C3.96519531 1.81984375 3.93039062 2.6396875 3.89453125 3.484375 C3.86746094 4.56203125 3.84039062 5.6396875 3.8125 6.75 C3.77769531 7.81734375 3.74289062 8.8846875 3.70703125 9.984375 C4.02917214 13.30027855 4.77148914 14.59016673 7 17 C4.13275314 16.42655063 3.1385485 16.1385485 1 14 C0.69940057 11.63490639 0.50484988 9.25558119 0.375 6.875 C0.30023438 5.59367187 0.22546875 4.31234375 0.1484375 2.9921875 C0.09945313 2.00476563 0.05046875 1.01734375 0 0 Z " fill="#1E395D" transform="translate(344,322)"/>
<path d="M0 0 C0.66 0 1.32 0 2 0 C1.98839844 0.75925781 1.97679687 1.51851563 1.96484375 2.30078125 C1.95582031 3.29464844 1.94679687 4.28851563 1.9375 5.3125 C1.92589844 6.29863281 1.91429687 7.28476562 1.90234375 8.30078125 C1.87670138 11.09963849 1.87670138 11.09963849 3 14 C-0.875 12.25 -0.875 12.25 -2 10 C-2.35294118 3.52941176 -2.35294118 3.52941176 0 0 Z " fill="#143055" transform="translate(166,324)"/>
<path d="M0 0 C3.16115776 1.36983503 3.9927092 1.9890638 6 5 C5.8125 8.5625 5.8125 8.5625 5 12 C4.01 12.66 3.02 13.32 2 14 C2.02320313 13.32453125 2.04640625 12.6490625 2.0703125 11.953125 C2.09738281 10.61507813 2.09738281 10.61507813 2.125 9.25 C2.15980469 7.92742187 2.15980469 7.92742187 2.1953125 6.578125 C1.99139502 3.8864142 1.36551721 2.30095026 0 0 Z " fill="#264062" transform="translate(176,323)"/>
<path d="M0 0 C3.3 0 6.6 0 10 0 C8.7260411 2.03833424 7.38938077 4.03852126 6 6 C5.34 6 4.68 6 4 6 C2.61061923 4.03852126 1.2739589 2.03833424 0 0 Z " fill="#0B284F" transform="translate(376,189)"/>
<path d="M0 0 C0.33 0.66 0.66 1.32 1 2 C4.465 1.505 4.465 1.505 8 1 C8 1.99 8 2.98 8 4 C5.36 4.33 2.72 4.66 0 5 C0 5.99 0 6.98 0 8 C-0.99 7.67 -1.98 7.34 -3 7 C-2.01 4.69 -1.02 2.38 0 0 Z " fill="#B0B9C6" transform="translate(408,331)"/>
<path d="M0 0 C1.98 0 3.96 0 6 0 C6.33 1.65 6.66 3.3 7 5 C6.566875 4.525625 6.13375 4.05125 5.6875 3.5625 C3.97690387 1.76313043 3.97690387 1.76313043 1 1 C1 5.95 1 10.9 1 16 C0.67 16 0.34 16 0 16 C0 10.72 0 5.44 0 0 Z " fill="#A0ABBA" transform="translate(236,322)"/>
<path d="M0 0 C0.99 0.33 1.98 0.66 3 1 C3.125 3.375 3.125 3.375 3 6 C1 8 1 8 -1.1640625 8.1953125 C-2.38222656 8.16050781 -2.38222656 8.16050781 -3.625 8.125 C-4.44226563 8.10695313 -5.25953125 8.08890625 -6.1015625 8.0703125 C-6.72804688 8.04710937 -7.35453125 8.02390625 -8 8 C-8 7.67 -8 7.34 -8 7 C-4.535 6.505 -4.535 6.505 -1 6 C-0.4465236 3.92446352 0 2.15634036 0 0 Z " fill="#4D637F" transform="translate(399,331)"/>
<path d="M0 0 C6.57142857 5 6.57142857 5 8 10 C6.84481082 9.09515208 5.70114594 8.1755794 4.5625 7.25 C3.60537109 6.48429687 3.60537109 6.48429687 2.62890625 5.703125 C0.81189446 3.80332371 0.39576803 2.56413092 0 0 Z " fill="#1B365A" transform="translate(431,328)"/>
<path d="M0 0 C5.09659478 2.54829739 5.10871914 3.89354167 7 9 C6.01 9 5.02 9 4 9 C2.68 6.03 1.36 3.06 0 0 Z " fill="#253F61" transform="translate(452,330)"/>
<path d="M0 0 C1.98 0 3.96 0 6 0 C1.25 4.875 1.25 4.875 -1 6 C-0.67 4.02 -0.34 2.04 0 0 Z " fill="#909DAF" transform="translate(228,322)"/>
<path d="M0 0 C2.72426311 2.35277269 3.8141763 4.62496331 5 8 C3.68 8 2.36 8 1 8 C0.67 5.36 0.34 2.72 0 0 Z " fill="#1F3A5E" transform="translate(416,331)"/>
<path d="M0 0 C2.99324263 1.0975223 3.84610901 1.67682892 5.25 4.625 C5.4975 5.40875 5.745 6.1925 6 7 C5.01 7 4.02 7 3 7 C2.01 4.69 1.02 2.38 0 0 Z " fill="#233D60" transform="translate(213,332)"/>
<path d="M0 0 C1.98 0.99 1.98 0.99 4 2 C3.67 3.32 3.34 4.64 3 6 C2.01 6 1.02 6 0 6 C0 4.02 0 2.04 0 0 Z " fill="#294264" transform="translate(214,323)"/>
<path d="M0 0 C0.66 0 1.32 0 2 0 C1.67 2.97 1.34 5.94 1 9 C0.01 8.01 -0.98 7.02 -2 6 C-1.7181953 3.67511119 -1.04553582 2.09107165 0 0 Z " fill="#566A85" transform="translate(166,324)"/>
</svg>
